<svg xmlns="http://www.w3.org/2000/svg" width="600" height="400" viewBox="0 0 600 400"><rect width="100%" height="100%" fill="#DDDDDD"/><path fill="#999999" d="M129.37 175.26v40.49h-7.56v-40.49zm14.86 40.49h-6.91v-28.73h4.23q1.34 0 1.76 1.26l.45 2.13q.75-.84 1.58-1.54t1.76-1.2q.94-.51 2.02-.8 1.08-.3 2.37-.3 2.71 0 4.46 1.47t2.62 3.91q.67-1.43 1.68-2.45t2.21-1.67q1.21-.64 2.56-.95 1.36-.31 2.73-.31 2.38 0 4.23.73t3.11 2.13 1.92 3.42q.66 2.01.66 4.62v18.28h-6.92v-18.28q0-2.75-1.2-4.13-1.21-1.39-3.53-1.39-1.07 0-1.98.36-.91.37-1.59 1.05-.69.69-1.08 1.73-.39 1.03-.39 2.38v18.28h-6.95v-18.28q0-2.89-1.16-4.2-1.16-1.32-3.4-1.32-1.51 0-2.81.74-1.31.74-2.43 2.03zm55.16-7.42v-4.84q-2.99.14-5.04.51-2.04.38-3.27.97t-1.77 1.37q-.53.79-.53 1.71 0 1.82 1.08 2.6 1.08.79 2.81.79 2.13 0 3.69-.77 1.55-.77 3.03-2.34m-14.61-15.09-1.23-2.21q4.95-4.54 11.92-4.54 2.52 0 4.51.83 1.99.82 3.36 2.29t2.09 3.52q.71 2.04.71 4.48v18.14h-3.13q-.98 0-1.52-.29-.53-.3-.84-1.19l-.61-2.08q-1.09.98-2.13 1.73-1.04.74-2.16 1.24-1.12.51-2.39.77-1.27.27-2.81.27-1.82 0-3.36-.49t-2.66-1.47-1.74-2.44q-.62-1.45-.62-3.39 0-1.09.37-2.17.36-1.07 1.19-2.05.82-.98 2.14-1.85t3.23-1.51q1.92-.65 4.47-1.05 2.55-.41 5.82-.49v-1.68q0-2.89-1.23-4.27-1.23-1.39-3.55-1.39-1.68 0-2.79.39t-1.95.88-1.52.89q-.69.39-1.53.39-.73 0-1.23-.38t-.81-.88m38.36 7.45q1.29 0 2.24-.35t1.58-.97.95-1.48q.32-.87.32-1.91 0-2.13-1.27-3.37-1.27-1.25-3.82-1.25t-3.82 1.25q-1.28 1.24-1.28 3.37 0 1.01.32 1.88.33.87.96 1.5t1.59.98q.97.35 2.23.35m7.81 16.35q0-.84-.5-1.37-.51-.54-1.38-.83-.86-.29-2.03-.43-1.16-.14-2.46-.21t-2.69-.13q-1.38-.06-2.7-.22-1.15.64-1.86 1.51-.72.87-.72 2.01 0 .76.38 1.42t1.21 1.13q.82.48 2.14.74 1.31.27 3.22.27 1.93 0 3.33-.29 1.4-.3 2.31-.82.91-.51 1.33-1.23.42-.71.42-1.55M229.58 188h8.26v2.58q0 1.23-1.49 1.51l-2.57.48q.59 1.48.59 3.24 0 2.13-.86 3.85-.85 1.73-2.36 2.93-1.52 1.2-3.57 1.86-2.06.66-4.44.66-.84 0-1.63-.08-.78-.09-1.54-.23-1.34.81-1.34 1.82 0 .87.8 1.28.8.4 2.11.57 1.32.17 3 .21t3.44.18q1.77.14 3.45.49t2.99 1.11q1.32.75 2.12 2.06.79 1.3.79 3.34 0 1.91-.93 3.7-.94 1.79-2.72 3.19t-4.37 2.25q-2.59.86-5.89.86-3.25 0-5.66-.63t-4-1.68q-1.6-1.05-2.38-2.42-.79-1.38-.79-2.86 0-2.02 1.22-3.37 1.22-1.36 3.35-2.17-1.15-.59-1.82-1.57t-.67-2.58q0-.64.23-1.33.24-.68.7-1.36.47-.67 1.17-1.27t1.65-1.08q-2.19-1.17-3.43-3.13-1.25-1.96-1.25-4.6 0-2.12.86-3.85.85-1.72 2.38-2.94 1.52-1.21 3.61-1.86 2.08-.64 4.55-.64 1.85 0 3.47.38 1.62.37 2.97 1.1m18.09 10.08h13.04q0-1.34-.37-2.53-.38-1.19-1.14-2.09-.75-.89-1.92-1.41-1.16-.52-2.7-.52-2.99 0-4.72 1.71-1.72 1.71-2.19 4.84m17.64 4.17h-17.78q.16 2.22.78 3.83t1.62 2.66q1.01 1.05 2.4 1.56 1.38.52 3.06.52t2.9-.39 2.13-.87q.91-.47 1.6-.87.68-.39 1.33-.39.86 0 1.28.65l1.99 2.52q-1.15 1.34-2.57 2.25-1.43.91-2.99 1.46-1.55.54-3.16.77-1.61.22-3.12.22-3 0-5.57-.99-2.58-1-4.48-2.94-1.91-1.95-3-4.82t-1.09-6.65q0-2.94.95-5.53t2.73-4.51 4.34-3.04 5.78-1.12q2.72 0 5.01.87 2.3.87 3.95 2.54 1.65 1.66 2.59 4.08.94 2.43.94 5.53 0 1.57-.34 2.12-.33.54-1.28.54m29.03 7.28h16.19v6.22h-23.72v-40.49h7.53zm33.18-22.96q3.19 0 5.81 1.04t4.48 2.94 2.87 4.65q1.01 2.74 1.01 6.13 0 3.42-1.01 6.16t-2.87 4.68q-1.86 1.93-4.48 2.96-2.62 1.04-5.81 1.04-3.22 0-5.85-1.04-2.63-1.03-4.49-2.96-1.87-1.94-2.89-4.68t-1.02-6.16q0-3.39 1.02-6.13 1.02-2.75 2.89-4.65 1.86-1.9 4.49-2.94t5.85-1.04m0 24.28q3.59 0 5.31-2.41t1.72-7.05q0-4.65-1.72-7.09-1.72-2.43-5.31-2.43-3.64 0-5.39 2.45t-1.75 7.07 1.75 7.04 5.39 2.42m34.64-2.52v-4.84q-3 .14-5.04.51-2.05.38-3.28.97t-1.76 1.37q-.53.79-.53 1.71 0 1.82 1.07 2.6 1.08.79 2.82.79 2.13 0 3.68-.77t3.04-2.34m-14.62-15.09-1.23-2.21q4.96-4.54 11.93-4.54 2.52 0 4.51.83 1.98.82 3.36 2.29 1.37 1.47 2.08 3.52.72 2.04.72 4.48v18.14h-3.14q-.98 0-1.51-.29-.53-.3-.84-1.19l-.62-2.08q-1.09.98-2.13 1.73-1.03.74-2.15 1.24-1.12.51-2.4.77-1.27.27-2.81.27-1.82 0-3.36-.49t-2.66-1.47-1.74-2.44q-.61-1.45-.61-3.39 0-1.09.36-2.17.37-1.07 1.19-2.05.83-.98 2.14-1.85 1.32-.87 3.24-1.51 1.92-.65 4.46-1.05 2.55-.41 5.83-.49v-1.68q0-2.89-1.23-4.27-1.24-1.39-3.56-1.39-1.68 0-2.79.39-1.1.39-1.94.88t-1.53.89q-.68.39-1.52.39-.73 0-1.24-.38-.5-.38-.81-.88m45.89 14v-12.88q-1.17-1.43-2.56-2.02-1.38-.59-2.98-.59-1.57 0-2.83.59t-2.15 1.78q-.9 1.19-1.38 3.02-.47 1.84-.47 4.33 0 2.52.4 4.27.41 1.75 1.17 2.86.75 1.1 1.84 1.59 1.1.49 2.44.49 2.16 0 3.67-.89 1.51-.9 2.85-2.55m0-33.1h6.92v41.61h-4.23q-1.37 0-1.73-1.26l-.59-2.77q-1.74 1.99-3.99 3.22-2.26 1.23-5.25 1.23-2.35 0-4.31-.98t-3.38-2.84q-1.41-1.86-2.18-4.61-.77-2.74-.77-6.27 0-3.19.87-5.94.86-2.74 2.49-4.76 1.62-2.01 3.89-3.15 2.27-1.13 5.1-1.13 2.4 0 4.11.76 1.71.75 3.05 2.04zm13.98 12.88h6.94v28.73h-6.94zm7.89-8.37q0 .9-.36 1.68-.37.78-.97 1.37t-1.41.94-1.74.35q-.89 0-1.69-.35t-1.39-.94-.94-1.37-.35-1.68q0-.92.35-1.74.35-.81.94-1.4.59-.58 1.39-.93t1.69-.35q.93 0 1.74.35t1.41.93q.6.59.97 1.4.36.82.36 1.74m12.1 9.63.47 2.27q.87-.87 1.84-1.61.96-.74 2.04-1.26t2.31-.81q1.23-.3 2.69-.3 2.35 0 4.17.8t3.04 2.24 1.85 3.45q.63 2 .63 4.41v18.28h-6.92v-18.28q0-2.64-1.2-4.08-1.21-1.44-3.67-1.44-1.79 0-3.36.81t-2.97 2.21v20.78h-6.91v-28.73h4.22q1.35 0 1.77 1.26m36.09 12.41q1.29 0 2.24-.35t1.58-.97.95-1.48q.33-.87.33-1.91 0-2.13-1.28-3.37-1.27-1.25-3.82-1.25t-3.82 1.25q-1.28 1.24-1.28 3.37 0 1.01.33 1.88.32.87.95 1.5t1.59.98q.97.35 2.23.35m7.81 16.35q0-.84-.5-1.37-.51-.54-1.37-.83-.87-.29-2.03-.43-1.17-.14-2.47-.21t-2.69-.13q-1.38-.06-2.7-.22-1.15.64-1.86 1.51t-.71 2.01q0 .76.37 1.42.38.66 1.21 1.13.82.48 2.14.74 1.32.27 3.22.27 1.93 0 3.33-.29 1.4-.3 2.31-.82.91-.51 1.33-1.23.42-.71.42-1.55M469.93 188h8.26v2.58q0 1.23-1.48 1.51l-2.58.48q.59 1.48.59 3.24 0 2.13-.86 3.85-.85 1.73-2.36 2.93t-3.57 1.86-4.44.66q-.84 0-1.62-.08-.79-.09-1.54-.23-1.35.81-1.35 1.82 0 .87.8 1.28.8.4 2.11.57 1.32.17 3 .21t3.44.18q1.77.14 3.45.49t2.99 1.11q1.32.75 2.12 2.06.8 1.3.8 3.34 0 1.91-.94 3.7t-2.72 3.19-4.37 2.25q-2.59.86-5.89.86-3.25 0-5.66-.63-2.4-.63-4-1.68t-2.38-2.42q-.78-1.38-.78-2.86 0-2.02 1.21-3.37 1.22-1.36 3.35-2.17-1.15-.59-1.82-1.57t-.67-2.58q0-.64.24-1.33.23-.68.7-1.36.46-.67 1.16-1.27t1.65-1.08q-2.18-1.17-3.43-3.13t-1.25-4.6q0-2.12.86-3.85.85-1.72 2.38-2.94 1.52-1.21 3.61-1.86 2.09-.64 4.55-.64 1.85 0 3.47.38 1.63.37 2.97 1.1"/></svg>